<svg width="24" height="24" viewBox="0 0 24 24" fill="none" xmlns="http://www.w3.org/2000/svg">
<path d="M15 10L11.1402 13.8893C10.9937 14.0369 10.7563 14.0369 10.6098 13.8893L9 12.2672M20.4176 9.21633C20.124 8.82449 19.9608 8.4 19.8956 7.9102L19.6346 6.11429C19.5041 5.16735 18.7537 4.41633 17.7749 4.25306L15.9804 3.99184C15.5237 3.92653 15.0669 3.73061 14.6754 3.46939L13.2724 2.42449C12.8809 2.13061 12.4241 2 11.9674 2C11.5106 2 11.0538 2.13061 10.6623 2.42449L9.22675 3.50204C8.83524 3.79592 8.41109 3.95918 7.9217 4.02449L6.15987 4.28571C5.2137 4.41633 4.4633 5.16735 4.30016 6.14694L4.03915 7.94286C3.9739 8.4 3.77814 8.85714 3.51713 9.24898L2.44046 10.6857C1.85318 11.4694 1.85318 12.5469 2.44046 13.298L3.51713 14.7347C3.81077 15.1265 3.9739 15.551 4.03915 16.0408L4.30016 17.8367C4.43067 18.7837 5.18108 19.5347 6.15987 19.698L7.95432 19.9592C8.41109 20.0245 8.86786 20.2204 9.25938 20.4816L10.6949 21.5592C11.478 22.1469 12.5546 22.1469 13.3051 21.5592L14.7406 20.4816C15.1321 20.1878 15.5563 20.0245 16.0457 19.9592L17.8401 19.698C18.7863 19.5673 19.5367 18.8163 19.6998 17.8367L19.9608 16.0408C20.0261 15.5837 20.2219 15.1265 20.4829 14.7347L21.5595 13.298C22.1468 12.5143 22.1468 11.4367 21.5595 10.6857L20.4176 9.21633Z" stroke="white" stroke-width="2" stroke-linecap="round"/>
</svg>
